<?xml version="1.0" encoding="iso-8859-1"?>
<!-- Generator: Adobe Illustrator 19.0.0, SVG Export Plug-In . SVG Version: 6.00 Build 0)  -->
<svg version="1.1" id="Layer_1" xmlns="http://www.w3.org/2000/svg" xmlns:xlink="http://www.w3.org/1999/xlink" x="0px" y="0px"
	 viewBox="0 0 512 512" style="enable-background:new 0 0 512 512;" xml:space="preserve">
<g>
	<g>
		<path d="M434.909,40.727c-30.477,0-55.273,24.796-55.273,55.273v61.091h-29.091V96c0-52.935-43.066-96-96-96v17.455
			c43.311,0,78.545,35.235,78.545,78.545v78.545h64V96c0-20.852,16.965-37.818,37.818-37.818S472.727,75.148,472.727,96v116.364
			c0,20.852-16.965,37.818-37.818,37.818h-84.364v-43.636h-17.455v162.906h17.455V267.636h84.364
			c30.477,0,55.273-24.796,55.273-55.273V96C490.182,65.523,465.386,40.727,434.909,40.727z"/>
	</g>
</g>
<g>
	<g>
		<path d="M350.545,494.545V392.723h-17.455v101.823H176V305.455h-17.455v49.455H74.182c-20.852,0-37.818-16.966-37.818-37.818
			V200.727c0-20.852,16.966-37.818,37.818-37.818S112,179.875,112,200.727v78.545h64V96c0-29.064,16.061-55.66,41.914-69.412
			l-8.197-15.41C178.154,27.967,158.545,60.468,158.545,96v165.818h-29.091v-61.091c0-30.477-24.796-55.273-55.273-55.273
			s-55.273,24.796-55.273,55.273v116.364c0,30.477,24.796,55.273,55.273,55.273h84.364v122.182H45.091V512h407.273v-17.455H350.545z
			"/>
	</g>
</g>
<g>
	<g>
		<rect x="469.818" y="494.545" width="23.273" height="17.455"/>
	</g>
</g>
<g>
	<g>
		<rect x="202.182" y="104.727" width="23.273" height="17.455"/>
	</g>
</g>
<g>
	<g>
		<rect x="225.455" y="128" width="23.273" height="17.455"/>
	</g>
</g>
<g>
	<g>
		<rect x="272" y="186.182" width="23.273" height="17.455"/>
	</g>
</g>
<g>
	<g>
		<rect x="213.818" y="221.091" width="23.273" height="17.455"/>
	</g>
</g>
<g>
	<g>
		<rect x="237.091" y="244.364" width="23.273" height="17.455"/>
	</g>
</g>
<g>
	<g>
		<rect x="272" y="325.818" width="23.273" height="17.455"/>
	</g>
</g>
<g>
	<g>
		<rect x="213.818" y="360.727" width="23.273" height="17.455"/>
	</g>
</g>
<g>
	<g>
		<rect x="272" y="407.273" width="23.273" height="17.455"/>
	</g>
</g>
<g>
	<g>
		<rect x="248.727" y="430.545" width="23.273" height="17.455"/>
	</g>
</g>
<g>
	<g>
		<rect x="272" y="69.818" width="23.273" height="17.455"/>
	</g>
</g>
<g>
	<g>
		<rect x="434.909" y="104.727" width="23.273" height="17.455"/>
	</g>
</g>
<g>
	<g>
		<rect x="411.636" y="128" width="23.273" height="17.455"/>
	</g>
</g>
<g>
	<g>
		<rect x="423.273" y="186.182" width="23.273" height="17.455"/>
	</g>
</g>
<g>
	<g>
		<rect x="376.727" y="209.455" width="23.273" height="17.455"/>
	</g>
</g>
<g>
	<g>
		<rect x="50.909" y="197.818" width="23.273" height="17.455"/>
	</g>
</g>
<g>
	<g>
		<rect x="74.182" y="221.091" width="23.273" height="17.455"/>
	</g>
</g>
<g>
	<g>
		<rect x="62.545" y="290.909" width="23.273" height="17.455"/>
	</g>
</g>
<g>
	<g>
		<rect x="109.091" y="314.182" width="23.273" height="17.455"/>
	</g>
</g>
<g>
</g>
<g>
</g>
<g>
</g>
<g>
</g>
<g>
</g>
<g>
</g>
<g>
</g>
<g>
</g>
<g>
</g>
<g>
</g>
<g>
</g>
<g>
</g>
<g>
</g>
<g>
</g>
<g>
</g>
</svg>
