<svg xmlns="http://www.w3.org/2000/svg" viewBox="0 0 464.51 107.08"><defs><style>.cls-1{fill:#578e44;}.cls-2{fill:#5f4118;}</style></defs><title>Recurso 2</title><g id="Capa_2" data-name="Capa 2"><g id="Capa_1-2" data-name="Capa 1"><rect class="cls-1" y="37.72" width="45.84" height="45.84" rx="22.92"/><rect class="cls-1" x="76.01" y="37.72" width="45.84" height="45.84" rx="22.92"/><rect class="cls-1" x="35.08" width="51.72" height="51.72" rx="25.86"/><rect class="cls-2" x="57.28" y="28.24" width="7.16" height="78.84" rx="3.58"/><rect class="cls-2" x="72.85" y="50.67" width="7.16" height="49" rx="3.58" transform="translate(75.54 -32.03) rotate(45)"/><rect class="cls-2" x="41.42" y="50.67" width="7.16" height="49" rx="3.58" transform="translate(-39.97 53.84) rotate(-45)"/><path class="cls-1" d="M290.25,89.75a.67.67,0,0,1-.13.22.55.55,0,0,1-.24.13,1.3,1.3,0,0,1-.39.07l-.6,0h-.46a1.69,1.69,0,0,1-.35,0l-.25-.05a.75.75,0,0,1-.18-.08.34.34,0,0,1-.12-.12l-.08-.16-5.16-14.67a1.27,1.27,0,0,1-.1-.44.28.28,0,0,1,.1-.25.69.69,0,0,1,.35-.11l.66,0a4.28,4.28,0,0,1,.55,0,1.06,1.06,0,0,1,.31.06.43.43,0,0,1,.16.13,1.2,1.2,0,0,1,.11.2L289,88h0l4.4-13.27a1.23,1.23,0,0,1,.09-.22.35.35,0,0,1,.17-.14,1.31,1.31,0,0,1,.34-.06,4.89,4.89,0,0,1,.59,0,4.75,4.75,0,0,1,.6,0,.61.61,0,0,1,.3.11.32.32,0,0,1,.06.25,1.73,1.73,0,0,1-.12.44Z"/><path class="cls-1" d="M300.06,75.11a1.37,1.37,0,0,1-.26,1,1.45,1.45,0,0,1-1,.26,1.37,1.37,0,0,1-1-.26,1.26,1.26,0,0,1-.27-.94,1.36,1.36,0,0,1,.27-1,1.46,1.46,0,0,1,1-.25,1.4,1.4,0,0,1,1,.25A1.27,1.27,0,0,1,300.06,75.11Zm-.23,14.7a.25.25,0,0,1-.05.17.34.34,0,0,1-.16.11,1.26,1.26,0,0,1-.3.08l-.5,0-.49,0a1.53,1.53,0,0,1-.31-.08.34.34,0,0,1-.16-.11.31.31,0,0,1,0-.17v-11a.29.29,0,0,1,0-.16.36.36,0,0,1,.16-.13,1.61,1.61,0,0,1,.31-.07,3.48,3.48,0,0,1,.49,0,3.63,3.63,0,0,1,.5,0,1.33,1.33,0,0,1,.3.07.36.36,0,0,1,.16.13.24.24,0,0,1,.05.16Z"/><path class="cls-1" d="M312.56,78.8v.1s0,.08,0,.12l0,.13s0,.11,0,.16l-3.75,10.44a.67.67,0,0,1-.13.22.46.46,0,0,1-.24.13,1.37,1.37,0,0,1-.4.07l-.61,0-.61,0a2.55,2.55,0,0,1-.4-.08.55.55,0,0,1-.24-.13.74.74,0,0,1-.13-.21l-3.74-10.44c0-.09-.05-.18-.07-.25a1,1,0,0,1,0-.17.28.28,0,0,1,0-.09.34.34,0,0,1,0-.17.32.32,0,0,1,.17-.12,1.68,1.68,0,0,1,.3-.05h.47a4.54,4.54,0,0,1,.57,0,1.22,1.22,0,0,1,.33.06.37.37,0,0,1,.17.12.67.67,0,0,1,.1.19l3.1,9,.05.15,0-.15,3.06-9a.48.48,0,0,1,.09-.19.41.41,0,0,1,.18-.12,1.06,1.06,0,0,1,.31-.06,4,4,0,0,1,.53,0h.47a1,1,0,0,1,.29.06.33.33,0,0,1,.14.12A.27.27,0,0,1,312.56,78.8Z"/><path class="cls-1" d="M324,83.84a.84.84,0,0,1-.24.68.85.85,0,0,1-.55.2H316a7,7,0,0,0,.18,1.65,3.1,3.1,0,0,0,.62,1.26,2.7,2.7,0,0,0,1.11.8,4.41,4.41,0,0,0,1.68.28,6.6,6.6,0,0,0,1.4-.13A8.42,8.42,0,0,0,322,88.3c.3-.11.54-.2.74-.29a1.3,1.3,0,0,1,.43-.13.3.3,0,0,1,.16.05.24.24,0,0,1,.1.12,2.08,2.08,0,0,1,.06.24c0,.1,0,.23,0,.37a2.35,2.35,0,0,1,0,.28q0,.12,0,.21a.44.44,0,0,1-.06.16.76.76,0,0,1-.11.14,1.48,1.48,0,0,1-.4.22,6.2,6.2,0,0,1-.85.3,12.17,12.17,0,0,1-1.22.26,8.58,8.58,0,0,1-1.47.12A6.85,6.85,0,0,1,317,90a4.51,4.51,0,0,1-1.72-1.12,4.93,4.93,0,0,1-1-1.87,8.91,8.91,0,0,1-.35-2.61,8,8,0,0,1,.37-2.55,5.27,5.27,0,0,1,1.05-1.91A4.57,4.57,0,0,1,317,78.7a5.47,5.47,0,0,1,2.18-.42,5.25,5.25,0,0,1,2.21.41,4.22,4.22,0,0,1,1.49,1.12,4.48,4.48,0,0,1,.86,1.65,7,7,0,0,1,.28,2Zm-2-.6a3.69,3.69,0,0,0-.7-2.49,2.72,2.72,0,0,0-2.21-.9,2.81,2.81,0,0,0-2.26,1,3.41,3.41,0,0,0-.59,1.08,4.26,4.26,0,0,0-.23,1.28Z"/><path class="cls-1" d="M333.46,79.55c0,.17,0,.32,0,.45a.88.88,0,0,1-.05.28.31.31,0,0,1-.09.16.2.2,0,0,1-.15.06.6.6,0,0,1-.24-.06l-.32-.11-.39-.1a2.44,2.44,0,0,0-.48,0,1.61,1.61,0,0,0-.6.12,2.67,2.67,0,0,0-.62.4,5.17,5.17,0,0,0-.67.75,13.74,13.74,0,0,0-.78,1.14v7.22A.31.31,0,0,1,329,90a.5.5,0,0,1-.16.11,1.53,1.53,0,0,1-.31.08l-.5,0-.49,0a1.53,1.53,0,0,1-.31-.08.41.41,0,0,1-.16-.11.43.43,0,0,1,0-.17v-11a.31.31,0,0,1,0-.17.29.29,0,0,1,.14-.12.77.77,0,0,1,.29-.07,5,5,0,0,1,.89,0,.67.67,0,0,1,.28.07.42.42,0,0,1,.14.12.31.31,0,0,1,0,.17v1.59a8.15,8.15,0,0,1,.85-1.07,4.23,4.23,0,0,1,.75-.65,2.33,2.33,0,0,1,.7-.33,2.8,2.8,0,0,1,.7-.09h.36l.42.07a3.26,3.26,0,0,1,.4.11.83.83,0,0,1,.25.12.35.35,0,0,1,.1.12.47.47,0,0,1,0,.14c0,.06,0,.14,0,.25Z"/><path class="cls-1" d="M345.57,84.2a8.42,8.42,0,0,1-.35,2.47,5.44,5.44,0,0,1-1.06,1.94,4.66,4.66,0,0,1-1.76,1.28,6,6,0,0,1-2.44.46,6.57,6.57,0,0,1-2.37-.4,4.2,4.2,0,0,1-1.67-1.18,4.77,4.77,0,0,1-1-1.86,8.73,8.73,0,0,1-.33-2.49,8.5,8.5,0,0,1,.34-2.48A5.42,5.42,0,0,1,336,80a4.68,4.68,0,0,1,1.75-1.27,6.21,6.21,0,0,1,2.46-.45,6.31,6.31,0,0,1,2.36.4,4.39,4.39,0,0,1,1.68,1.17,5.1,5.1,0,0,1,1,1.87A8.61,8.61,0,0,1,345.57,84.2Zm-2.09.13a8.26,8.26,0,0,0-.16-1.68,4.27,4.27,0,0,0-.55-1.4,2.83,2.83,0,0,0-1-.94,3.94,3.94,0,0,0-3.18,0,2.79,2.79,0,0,0-1.06.9,3.83,3.83,0,0,0-.62,1.37,6.72,6.72,0,0,0-.21,1.73,8.37,8.37,0,0,0,.17,1.7,3.88,3.88,0,0,0,.55,1.38,2.77,2.77,0,0,0,1,.94,3.92,3.92,0,0,0,3.17,0,2.73,2.73,0,0,0,1.07-.89,3.86,3.86,0,0,0,.62-1.36A7.33,7.33,0,0,0,343.48,84.33Z"/><path class="cls-1" d="M183.44,43.07a6.18,6.18,0,0,1,0,.65,2.18,2.18,0,0,1-.08.49,1.79,1.79,0,0,1-.15.37,2.5,2.5,0,0,1-.34.4,7.41,7.41,0,0,1-1,.71,11.9,11.9,0,0,1-1.89.93,16.78,16.78,0,0,1-2.6.77,15.32,15.32,0,0,1-3.21.32,14.47,14.47,0,0,1-5.43-1,11.12,11.12,0,0,1-4.12-2.89A13.08,13.08,0,0,1,162,39.12a20.62,20.62,0,0,1-.92-6.47A20.92,20.92,0,0,1,162,26a14.32,14.32,0,0,1,2.78-5,11.81,11.81,0,0,1,4.28-3.11,14.59,14.59,0,0,1,8.12-.83,17.5,17.5,0,0,1,2.33.62,11.3,11.3,0,0,1,1.91.86,6.72,6.72,0,0,1,1.16.81,2.6,2.6,0,0,1,.41.48,1.32,1.32,0,0,1,.16.38,3.22,3.22,0,0,1,.09.53,5,5,0,0,1,0,.72,5.83,5.83,0,0,1,0,.79,2.31,2.31,0,0,1-.14.55.83.83,0,0,1-.23.32.52.52,0,0,1-.32.11,1.76,1.76,0,0,1-.94-.46,15.77,15.77,0,0,0-1.55-1,12.55,12.55,0,0,0-2.3-1,10.3,10.3,0,0,0-3.24-.45,8.59,8.59,0,0,0-3.76.8,7.89,7.89,0,0,0-2.88,2.37,11.48,11.48,0,0,0-1.86,3.81,18.27,18.27,0,0,0-.66,5.14,18.37,18.37,0,0,0,.63,5.06,10.62,10.62,0,0,0,1.82,3.69,7.69,7.69,0,0,0,2.92,2.23,9.54,9.54,0,0,0,3.91.76,10.4,10.4,0,0,0,3.22-.44,12.78,12.78,0,0,0,2.35-1c.64-.37,1.18-.7,1.59-1a1.92,1.92,0,0,1,1-.44.52.52,0,0,1,.29.07.42.42,0,0,1,.19.26,2.21,2.21,0,0,1,.11.55A7.31,7.31,0,0,1,183.44,43.07Z"/><path class="cls-1" d="M206,45.68a4,4,0,0,1,0,.73,1.51,1.51,0,0,1-.16.53.74.74,0,0,1-.28.3.64.64,0,0,1-.34.09H190.4a1.73,1.73,0,0,1-1-.36,1.49,1.49,0,0,1-.49-1.27V18.8a1.5,1.5,0,0,1,.49-1.27,1.73,1.73,0,0,1,1-.36H205a.62.62,0,0,1,.35.1.69.69,0,0,1,.25.3,2.52,2.52,0,0,1,.15.52,4.26,4.26,0,0,1,.06.78,4,4,0,0,1-.06.74,2.24,2.24,0,0,1-.15.51.72.72,0,0,1-.25.29.71.71,0,0,1-.35.1H193V30h10.34a.6.6,0,0,1,.35.1.92.92,0,0,1,.26.29,1.78,1.78,0,0,1,.16.52,5.78,5.78,0,0,1,0,.77,5,5,0,0,1,0,.72,1.76,1.76,0,0,1-.16.49.75.75,0,0,1-.26.27.78.78,0,0,1-.35.08H193V44h12.23a.64.64,0,0,1,.34.09.78.78,0,0,1,.28.29,1.45,1.45,0,0,1,.16.52A4.37,4.37,0,0,1,206,45.68Z"/><path class="cls-1" d="M216.82,46.73a.51.51,0,0,1-.1.32.55.55,0,0,1-.33.22,2.7,2.7,0,0,1-.63.14,6.71,6.71,0,0,1-1,.06,6.85,6.85,0,0,1-1-.06,2.68,2.68,0,0,1-.64-.14.61.61,0,0,1-.34-.22.57.57,0,0,1-.09-.32V17.78a.49.49,0,0,1,.11-.33.78.78,0,0,1,.35-.22,5.09,5.09,0,0,1,.65-.14,6.27,6.27,0,0,1,.94-.06,6.71,6.71,0,0,1,1,.06,4.37,4.37,0,0,1,.63.14.66.66,0,0,1,.33.22.54.54,0,0,1,.1.33Z"/><path class="cls-1" d="M245.36,38.68a8.8,8.8,0,0,1-.37,2.63,7.53,7.53,0,0,1-1,2.15,7.33,7.33,0,0,1-1.61,1.68,8.94,8.94,0,0,1-2.12,1.21,12.49,12.49,0,0,1-2.52.74,17.79,17.79,0,0,1-3.09.24h-8.06a1.73,1.73,0,0,1-1-.36A1.46,1.46,0,0,1,225,45.7V18.8a1.48,1.48,0,0,1,.49-1.27,1.73,1.73,0,0,1,1-.36h7a16.73,16.73,0,0,1,4.53.51,8.08,8.08,0,0,1,2.94,1.5,6.14,6.14,0,0,1,1.78,2.4,8.2,8.2,0,0,1,.6,3.21,7.76,7.76,0,0,1-.27,2.06,6.57,6.57,0,0,1-.77,1.8,6,6,0,0,1-1.29,1.48,6.74,6.74,0,0,1-1.78,1.07,7.81,7.81,0,0,1,2.37.85,7.2,7.2,0,0,1,3.21,3.82A7.93,7.93,0,0,1,245.36,38.68Zm-6.17-13.49a6.14,6.14,0,0,0-.31-2,3.73,3.73,0,0,0-1-1.5,4.27,4.27,0,0,0-1.74-.95,9.88,9.88,0,0,0-2.83-.32H229.1V30.2h4.66a6.61,6.61,0,0,0,2.57-.41A4.58,4.58,0,0,0,238,28.7a4.28,4.28,0,0,0,.94-1.61A6.09,6.09,0,0,0,239.19,25.19Zm1.86,13.73a5.88,5.88,0,0,0-.45-2.38,4.47,4.47,0,0,0-1.28-1.72,5.63,5.63,0,0,0-2.12-1.06,11.92,11.92,0,0,0-3.2-.37h-4.9V44h6a8.56,8.56,0,0,0,2.45-.32,5.49,5.49,0,0,0,1.84-1,4.38,4.38,0,0,0,1.25-1.6A5.1,5.1,0,0,0,241.05,38.92Z"/><path class="cls-1" d="M277.43,31.9a22.87,22.87,0,0,1-.88,6.6,13.73,13.73,0,0,1-2.64,5,11.46,11.46,0,0,1-4.4,3.17,15.85,15.85,0,0,1-6.17,1.1,16.11,16.11,0,0,1-6-1,10.6,10.6,0,0,1-4.2-2.95,12.55,12.55,0,0,1-2.47-4.8,24.31,24.31,0,0,1-.81-6.59,22.22,22.22,0,0,1,.89-6.48,13.32,13.32,0,0,1,2.64-5,11.66,11.66,0,0,1,4.41-3.14,17.94,17.94,0,0,1,12.12-.11,10.91,10.91,0,0,1,4.21,2.93,12.31,12.31,0,0,1,2.5,4.75A23.26,23.26,0,0,1,277.43,31.9Zm-4.34.28a23,23,0,0,0-.46-4.76,10.89,10.89,0,0,0-1.55-3.83,7.47,7.47,0,0,0-2.89-2.53,10,10,0,0,0-4.48-.9,9.25,9.25,0,0,0-4.48,1,8.41,8.41,0,0,0-2.94,2.61,10.76,10.76,0,0,0-1.62,3.81,21.22,21.22,0,0,0-.49,4.58,24,24,0,0,0,.46,4.89,10.87,10.87,0,0,0,1.52,3.86A7.14,7.14,0,0,0,259,43.4a10,10,0,0,0,4.51.9,9.45,9.45,0,0,0,4.53-1A8.08,8.08,0,0,0,271,40.68a11,11,0,0,0,1.6-3.86A22.32,22.32,0,0,0,273.09,32.18Z"/><path class="cls-1" d="M318.16,36.19a13.92,13.92,0,0,1-.82,4.91A9.68,9.68,0,0,1,311.27,47a15.16,15.16,0,0,1-5,.76,14.27,14.27,0,0,1-4.65-.72,9.84,9.84,0,0,1-3.6-2.13,9.35,9.35,0,0,1-2.31-3.53,13.72,13.72,0,0,1-.81-4.9V17.78a.54.54,0,0,1,.1-.33.66.66,0,0,1,.33-.22,4.19,4.19,0,0,1,.62-.14,6.67,6.67,0,0,1,1-.06,6.85,6.85,0,0,1,1,.06,3.82,3.82,0,0,1,.63.14.67.67,0,0,1,.32.22.61.61,0,0,1,.1.33V36a11.48,11.48,0,0,0,.52,3.65,6.8,6.8,0,0,0,1.52,2.6,6.25,6.25,0,0,0,2.38,1.56,8.84,8.84,0,0,0,3.14.53,9.22,9.22,0,0,0,3.18-.51,6.17,6.17,0,0,0,2.36-1.54,6.93,6.93,0,0,0,1.48-2.54,11.11,11.11,0,0,0,.51-3.54V17.78a.54.54,0,0,1,.1-.33.66.66,0,0,1,.33-.22,4.37,4.37,0,0,1,.63-.14,8,8,0,0,1,2,0,4.19,4.19,0,0,1,.62.14.76.76,0,0,1,.33.22.55.55,0,0,1,.11.33Z"/><path class="cls-1" d="M346.87,46.73a.66.66,0,0,1-.08.32c0,.1-.15.17-.31.24a3.21,3.21,0,0,1-.66.14c-.29,0-.67,0-1.15,0a9.37,9.37,0,0,1-1,0,2.61,2.61,0,0,1-.63-.16.78.78,0,0,1-.37-.29,1.65,1.65,0,0,1-.23-.46l-2.84-7.11c-.33-.81-.68-1.55-1-2.23a7.46,7.46,0,0,0-1.28-1.75,5.16,5.16,0,0,0-1.74-1.14,6.43,6.43,0,0,0-2.41-.41h-2.74V46.73a.52.52,0,0,1-.11.32.62.62,0,0,1-.33.22,2.49,2.49,0,0,1-.62.14,8.2,8.2,0,0,1-2,0,2.7,2.7,0,0,1-.63-.14.61.61,0,0,1-.34-.22.57.57,0,0,1-.09-.32V18.8a1.48,1.48,0,0,1,.49-1.27,1.7,1.7,0,0,1,1-.36h6.56c.78,0,1.43,0,1.94.06s1,.08,1.4.13a12.21,12.21,0,0,1,3.16.95,7.59,7.59,0,0,1,2.3,1.66,6.45,6.45,0,0,1,1.39,2.3,8.35,8.35,0,0,1,.47,2.85,8.22,8.22,0,0,1-.42,2.72,6.7,6.7,0,0,1-1.2,2.12,7.94,7.94,0,0,1-1.89,1.59,12.3,12.3,0,0,1-2.45,1.15,5.6,5.6,0,0,1,1.38.82,7.8,7.8,0,0,1,1.16,1.2,11.12,11.12,0,0,1,1,1.61c.32.61.64,1.29,1,2.05L346.34,45c.22.56.37,1,.43,1.18A2.35,2.35,0,0,1,346.87,46.73Zm-6.18-21.19a5.28,5.28,0,0,0-.81-3,4.54,4.54,0,0,0-2.72-1.76,8.18,8.18,0,0,0-1.35-.24c-.5,0-1.15-.07-2-.07h-3.46V30.64h4a9,9,0,0,0,2.81-.38,5.58,5.58,0,0,0,2-1.07,4.18,4.18,0,0,0,1.16-1.62A5.39,5.39,0,0,0,340.69,25.54Z"/><path class="cls-1" d="M373.14,38.68a8.8,8.8,0,0,1-.37,2.63,7.61,7.61,0,0,1-2.64,3.83A9.21,9.21,0,0,1,368,46.35a12.49,12.49,0,0,1-2.52.74,17.79,17.79,0,0,1-3.09.24h-8.06a1.73,1.73,0,0,1-1-.36,1.49,1.49,0,0,1-.49-1.27V18.8a1.5,1.5,0,0,1,.49-1.27,1.73,1.73,0,0,1,1-.36h7a16.73,16.73,0,0,1,4.53.51,8,8,0,0,1,2.94,1.5,6.14,6.14,0,0,1,1.78,2.4,8.2,8.2,0,0,1,.6,3.21,7.76,7.76,0,0,1-.27,2.06,6.57,6.57,0,0,1-.77,1.8,6,6,0,0,1-1.29,1.48,6.85,6.85,0,0,1-1.77,1.07,7.84,7.84,0,0,1,2.36.85,7.2,7.2,0,0,1,3.21,3.82A7.93,7.93,0,0,1,373.14,38.68ZM367,25.19a6.14,6.14,0,0,0-.31-2,3.63,3.63,0,0,0-1-1.5,4.27,4.27,0,0,0-1.74-.95,9.88,9.88,0,0,0-2.83-.32h-4.23V30.2h4.66a6.61,6.61,0,0,0,2.57-.41,4.58,4.58,0,0,0,1.62-1.09,4.28,4.28,0,0,0,.94-1.61A6.09,6.09,0,0,0,367,25.19Zm1.86,13.73a5.88,5.88,0,0,0-.45-2.38,4.47,4.47,0,0,0-1.28-1.72A5.63,5.63,0,0,0,365,33.76a11.92,11.92,0,0,0-3.2-.37h-4.9V44h5.95a8.56,8.56,0,0,0,2.45-.32,5.49,5.49,0,0,0,1.84-1,4.38,4.38,0,0,0,1.25-1.6A5,5,0,0,0,368.83,38.92Z"/><path class="cls-1" d="M402,45.91a2.86,2.86,0,0,1,.21.83.62.62,0,0,1-.18.48,1.36,1.36,0,0,1-.64.21c-.29,0-.68,0-1.18,0s-.88,0-1.18,0a2.7,2.7,0,0,1-.66-.12.72.72,0,0,1-.34-.22,1.62,1.62,0,0,1-.2-.35l-2.65-7.34H382.34l-2.52,7.25a1.23,1.23,0,0,1-.19.36,1,1,0,0,1-.35.25,2.36,2.36,0,0,1-.64.16,10.81,10.81,0,0,1-1.09,0,8.62,8.62,0,0,1-1.13-.06,1.09,1.09,0,0,1-.62-.22.61.61,0,0,1-.17-.47,2.86,2.86,0,0,1,.21-.83l10.34-28a1.42,1.42,0,0,1,.25-.42,1.06,1.06,0,0,1,.46-.25,2.91,2.91,0,0,1,.76-.13c.31,0,.7,0,1.18,0s.93,0,1.26,0a3.27,3.27,0,0,1,.82.13,1.11,1.11,0,0,1,.47.26,1.24,1.24,0,0,1,.26.43ZM388.71,21.18h0l-5.32,15H394.1Z"/><path class="cls-1" d="M430.46,45.68a1.74,1.74,0,0,1-.16.79,1.41,1.41,0,0,1-.42.54,1.53,1.53,0,0,1-.58.3,2.3,2.3,0,0,1-.64.09h-1.35a4.23,4.23,0,0,1-1.13-.13,2.53,2.53,0,0,1-.91-.46,4.84,4.84,0,0,1-.86-.92,13.31,13.31,0,0,1-.92-1.49l-9.41-17.16c-.49-.88-1-1.81-1.49-2.78s-1-1.92-1.39-2.84h-.05c0,1.12.05,2.27.07,3.43s0,2.32,0,3.47V46.73a.52.52,0,0,1-.1.31.59.59,0,0,1-.34.23,2.73,2.73,0,0,1-.62.14,6.86,6.86,0,0,1-1,.06,6.71,6.71,0,0,1-1-.06,2.49,2.49,0,0,1-.62-.14.64.64,0,0,1-.33-.23.6.6,0,0,1-.1-.31V18.9a1.54,1.54,0,0,1,.54-1.33,2,2,0,0,1,1.19-.4h2a5,5,0,0,1,1.2.12,2.78,2.78,0,0,1,.86.38,3.51,3.51,0,0,1,.74.75,11.18,11.18,0,0,1,.75,1.2l7.23,13.24c.45.81.88,1.6,1.29,2.36s.82,1.53,1.2,2.28l1.14,2.2c.38.72.75,1.45,1.12,2.18h0q0-1.85-.06-3.84c0-1.32,0-2.6,0-3.83V17.85a.47.47,0,0,1,.1-.3.77.77,0,0,1,.34-.25,2.24,2.24,0,0,1,.63-.15,9.08,9.08,0,0,1,1,0,8.72,8.72,0,0,1,1,0,2.24,2.24,0,0,1,.63.15.7.7,0,0,1,.32.25.47.47,0,0,1,.1.3Z"/><path class="cls-1" d="M464.51,31.9a22.87,22.87,0,0,1-.88,6.6,13.87,13.87,0,0,1-2.63,5,11.61,11.61,0,0,1-4.4,3.17,15.93,15.93,0,0,1-6.18,1.1,16.11,16.11,0,0,1-6-1,10.6,10.6,0,0,1-4.2-2.95,12.54,12.54,0,0,1-2.46-4.8,23.9,23.9,0,0,1-.82-6.59,22.22,22.22,0,0,1,.89-6.48,13.32,13.32,0,0,1,2.64-5,11.66,11.66,0,0,1,4.41-3.14A17.94,17.94,0,0,1,457,17.73a10.91,10.91,0,0,1,4.21,2.93,12.31,12.31,0,0,1,2.5,4.75A23.26,23.26,0,0,1,464.51,31.9Zm-4.34.28a23,23,0,0,0-.46-4.76,10.89,10.89,0,0,0-1.55-3.83,7.47,7.47,0,0,0-2.89-2.53,10,10,0,0,0-4.48-.9,9.25,9.25,0,0,0-4.48,1,8.41,8.41,0,0,0-2.94,2.61,10.76,10.76,0,0,0-1.62,3.81,21.22,21.22,0,0,0-.49,4.58,24,24,0,0,0,.46,4.89,10.87,10.87,0,0,0,1.52,3.86,7.2,7.2,0,0,0,2.87,2.51,10,10,0,0,0,4.51.9,9.43,9.43,0,0,0,4.53-1,8.08,8.08,0,0,0,3-2.64,11,11,0,0,0,1.6-3.86A22.32,22.32,0,0,0,460.17,32.18Z"/></g></g></svg>