<svg xmlns="http://www.w3.org/2000/svg" viewBox="0 0 500 500"><defs><style>.cls-1{fill:#e9ffb9;}.cls-2{fill:#578e44;}.cls-3{fill:#5f4118;}</style></defs><title>Recurso 3</title><g id="Capa_2" data-name="Capa 2"><g id="Capa_1-2" data-name="Capa 1"><rect class="cls-1" width="500" height="500"/><path class="cls-2" d="M227.43,350.52a.54.54,0,0,1-.13.22.68.68,0,0,1-.24.13,1.71,1.71,0,0,1-.39.07l-.59,0h-.47a1.75,1.75,0,0,1-.35,0,1.31,1.31,0,0,1-.25-.06.48.48,0,0,1-.18-.07.6.6,0,0,1-.11-.12.54.54,0,0,1-.08-.17l-5.17-14.67a1.5,1.5,0,0,1-.1-.43.3.3,0,0,1,.1-.25.77.77,0,0,1,.36-.11,5.62,5.62,0,0,1,.66,0l.54,0a1,1,0,0,1,.31.07.39.39,0,0,1,.17.13,1.23,1.23,0,0,1,.1.2l4.53,13.29h0l4.41-13.27a.93.93,0,0,1,.08-.22.39.39,0,0,1,.17-.13,1.34,1.34,0,0,1,.35-.07l.58,0c.25,0,.45,0,.6,0a.53.53,0,0,1,.3.12.32.32,0,0,1,.06.25,1.58,1.58,0,0,1-.12.43Z"/><path class="cls-2" d="M237.25,335.88a1.36,1.36,0,0,1-.27,1,1.46,1.46,0,0,1-1,.25,1.4,1.4,0,0,1-1-.25,1.26,1.26,0,0,1-.26-.94,1.32,1.32,0,0,1,.27-1,1.4,1.4,0,0,1,1-.26,1.42,1.42,0,0,1,1,.26A1.3,1.3,0,0,1,237.25,335.88Zm-.23,14.7a.28.28,0,0,1-.05.16.4.4,0,0,1-.16.12,1,1,0,0,1-.31.07,3.34,3.34,0,0,1-.5,0,3.38,3.38,0,0,1-.49,0,1.1,1.1,0,0,1-.31-.07.34.34,0,0,1-.16-.12.38.38,0,0,1,0-.16v-11a.42.42,0,0,1,0-.16.34.34,0,0,1,.16-.12,1.1,1.1,0,0,1,.31-.07,3.38,3.38,0,0,1,.49,0,3.34,3.34,0,0,1,.5,0,1,1,0,0,1,.31.07.4.4,0,0,1,.16.12.3.3,0,0,1,.05.16Z"/><path class="cls-2" d="M249.75,339.57a.38.38,0,0,1,0,.1.5.5,0,0,1,0,.12.79.79,0,0,1,0,.13,1.24,1.24,0,0,1,0,.16l-3.75,10.44a.54.54,0,0,1-.13.22.56.56,0,0,1-.23.13,1.92,1.92,0,0,1-.41.07l-.61,0a5.28,5.28,0,0,1-.61,0,1.71,1.71,0,0,1-.39-.07.54.54,0,0,1-.24-.13.77.77,0,0,1-.14-.21l-3.73-10.44c0-.1-.06-.18-.08-.26l0-.16v-.09a.25.25,0,0,1,.05-.17.3.3,0,0,1,.16-.12.85.85,0,0,1,.3,0l.48,0,.56,0a1.1,1.1,0,0,1,.33.07.32.32,0,0,1,.17.12,1.42,1.42,0,0,1,.11.18l3.1,9.06,0,.15,0-.15,3.07-9.06a.37.37,0,0,1,.08-.18.41.41,0,0,1,.18-.12,1.09,1.09,0,0,1,.32-.07l.53,0,.46,0a.6.6,0,0,1,.29.06.37.37,0,0,1,.15.11A.43.43,0,0,1,249.75,339.57Z"/><path class="cls-2" d="M261.16,344.61a.85.85,0,0,1-.24.68.84.84,0,0,1-.54.2h-7.24a6.45,6.45,0,0,0,.19,1.65,3.11,3.11,0,0,0,.61,1.25,2.78,2.78,0,0,0,1.11.81,4.43,4.43,0,0,0,1.69.28,6.51,6.51,0,0,0,1.39-.13,8,8,0,0,0,1.06-.28l.74-.29a1.13,1.13,0,0,1,.44-.13.28.28,0,0,1,.15,0,.27.27,0,0,1,.1.13.7.7,0,0,1,.06.24,3.57,3.57,0,0,1,0,.37c0,.11,0,.2,0,.28a1.18,1.18,0,0,1,0,.2.49.49,0,0,1-.06.17.45.45,0,0,1-.11.14,1.68,1.68,0,0,1-.39.22,6.4,6.4,0,0,1-.86.3c-.35.09-.75.18-1.21.26a8.58,8.58,0,0,1-1.47.12,6.87,6.87,0,0,1-2.38-.38,4.31,4.31,0,0,1-1.71-1.13,4.64,4.64,0,0,1-1.05-1.86,8.6,8.6,0,0,1-.36-2.62,8.32,8.32,0,0,1,.37-2.54,5.42,5.42,0,0,1,1.06-1.92,4.66,4.66,0,0,1,1.66-1.21,5.48,5.48,0,0,1,2.19-.42,5.23,5.23,0,0,1,2.2.42,4.14,4.14,0,0,1,1.5,1.11,4.64,4.64,0,0,1,.86,1.65,7.36,7.36,0,0,1,.27,2Zm-2-.6a3.66,3.66,0,0,0-.7-2.49,2.7,2.7,0,0,0-2.21-.9,2.87,2.87,0,0,0-1.31.28,2.9,2.9,0,0,0-.95.74,3.52,3.52,0,0,0-.59,1.08,5,5,0,0,0-.23,1.29Z"/><path class="cls-2" d="M270.65,340.31c0,.18,0,.33,0,.45a1,1,0,0,1,0,.29.49.49,0,0,1-.1.16.17.17,0,0,1-.15.05.64.64,0,0,1-.24-.05l-.31-.11-.4-.1a1.86,1.86,0,0,0-.48-.05,1.61,1.61,0,0,0-.6.12,2.19,2.19,0,0,0-.61.4,5.18,5.18,0,0,0-.68.75,13.41,13.41,0,0,0-.78,1.13v7.23a.28.28,0,0,1-.05.16.3.3,0,0,1-.16.12,1,1,0,0,1-.3.07,3.43,3.43,0,0,1-.5,0,3.28,3.28,0,0,1-.49,0,1,1,0,0,1-.31-.07.3.3,0,0,1-.16-.12.27.27,0,0,1,0-.16v-11a.38.38,0,0,1,0-.16.31.31,0,0,1,.15-.12.66.66,0,0,1,.28-.08l.45,0,.45,0a.62.62,0,0,1,.27.08.28.28,0,0,1,.14.12.27.27,0,0,1,0,.16v1.6a8.32,8.32,0,0,1,.85-1.07,5.2,5.2,0,0,1,.75-.66,2.94,2.94,0,0,1,.7-.33,2.88,2.88,0,0,1,.71-.09l.36,0a3.67,3.67,0,0,1,.42.07l.39.11a.91.91,0,0,1,.26.12.31.31,0,0,1,.09.12.72.72,0,0,1,.05.14,1.38,1.38,0,0,1,0,.25C270.64,340,270.65,340.12,270.65,340.31Z"/><path class="cls-2" d="M282.76,345a8.17,8.17,0,0,1-.36,2.48,5.42,5.42,0,0,1-1,1.94,4.85,4.85,0,0,1-1.76,1.28,6.22,6.22,0,0,1-2.45.46,6.3,6.3,0,0,1-2.36-.41,4.39,4.39,0,0,1-1.68-1.17,4.87,4.87,0,0,1-1-1.87,8.63,8.63,0,0,1-.33-2.49,8.42,8.42,0,0,1,.35-2.47,5.4,5.4,0,0,1,1.05-1.95,4.82,4.82,0,0,1,1.75-1.27,6.19,6.19,0,0,1,2.45-.45,6.26,6.26,0,0,1,2.36.41,4.12,4.12,0,0,1,1.68,1.17,4.88,4.88,0,0,1,1,1.87A8.52,8.52,0,0,1,282.76,345Zm-2.09.14a8.27,8.27,0,0,0-.17-1.69A4,4,0,0,0,280,342a2.78,2.78,0,0,0-1-.95,4,4,0,0,0-3.17,0,3,3,0,0,0-1.07.9,4,4,0,0,0-.62,1.38,6.68,6.68,0,0,0-.2,1.73,8.22,8.22,0,0,0,.16,1.69,3.94,3.94,0,0,0,.56,1.39,2.7,2.7,0,0,0,1,.94,3.41,3.41,0,0,0,1.62.35,3.47,3.47,0,0,0,1.54-.32,2.85,2.85,0,0,0,1.08-.89,4,4,0,0,0,.61-1.37A7.29,7.29,0,0,0,280.67,345.1Z"/><path class="cls-2" d="M120.62,303.83c0,.25,0,.47,0,.66a3.07,3.07,0,0,1-.09.49,2,2,0,0,1-.15.37,2,2,0,0,1-.33.39,6.15,6.15,0,0,1-1,.71,12.3,12.3,0,0,1-1.89.94,16.46,16.46,0,0,1-2.6.77,15.34,15.34,0,0,1-3.21.31,14.18,14.18,0,0,1-5.42-1,10.85,10.85,0,0,1-4.13-2.89,13.15,13.15,0,0,1-2.62-4.72,23.12,23.12,0,0,1,.07-13.15,14.48,14.48,0,0,1,2.78-5,11.78,11.78,0,0,1,4.28-3.11,13.73,13.73,0,0,1,5.52-1.07,13.89,13.89,0,0,1,2.6.24,16.6,16.6,0,0,1,2.34.62,10.45,10.45,0,0,1,1.9.86,6.8,6.8,0,0,1,1.16.8,3.31,3.31,0,0,1,.42.48,1.76,1.76,0,0,1,.15.39,4.39,4.39,0,0,1,.1.52q0,.3,0,.72a4.68,4.68,0,0,1,0,.8,1.84,1.84,0,0,1-.14.54.77.77,0,0,1-.23.33.48.48,0,0,1-.32.11,1.87,1.87,0,0,1-.94-.46,14.88,14.88,0,0,0-1.54-1,12.18,12.18,0,0,0-2.3-1,10.11,10.11,0,0,0-3.25-.46,8.52,8.52,0,0,0-3.75.81,7.8,7.8,0,0,0-2.89,2.36,11.48,11.48,0,0,0-1.86,3.81,20.37,20.37,0,0,0,0,10.21,10.31,10.31,0,0,0,1.82,3.68,7.51,7.51,0,0,0,2.91,2.24,9.54,9.54,0,0,0,3.91.76,10.71,10.71,0,0,0,3.22-.44,12.76,12.76,0,0,0,2.35-1,16.73,16.73,0,0,0,1.6-1,1.94,1.94,0,0,1,1-.44.54.54,0,0,1,.29.07.52.52,0,0,1,.19.27,2.51,2.51,0,0,1,.11.55C120.61,303.18,120.62,303.48,120.62,303.83Z"/><path class="cls-2" d="M143.23,306.44a5.27,5.27,0,0,1,0,.74,1.45,1.45,0,0,1-.17.52.93.93,0,0,1-.27.31.7.7,0,0,1-.35.09H127.58a1.7,1.7,0,0,1-1-.36,1.48,1.48,0,0,1-.49-1.27v-26.9a1.46,1.46,0,0,1,.49-1.27,1.7,1.7,0,0,1,1-.36h14.64a.68.68,0,0,1,.35.09.69.69,0,0,1,.25.3,2.58,2.58,0,0,1,.16.53,4.26,4.26,0,0,1,.06.78,3.91,3.91,0,0,1-.06.73,2.48,2.48,0,0,1-.16.52.66.66,0,0,1-.25.29.68.68,0,0,1-.35.09H130.16v9.46h10.35a.6.6,0,0,1,.34.11.94.94,0,0,1,.27.29,1.47,1.47,0,0,1,.15.51,5.74,5.74,0,0,1,0,.77,4.87,4.87,0,0,1,0,.72,1.35,1.35,0,0,1-.15.49.64.64,0,0,1-.27.27.66.66,0,0,1-.34.08H130.16v10.8h12.23a.7.7,0,0,1,.35.09.85.85,0,0,1,.27.29,1.33,1.33,0,0,1,.17.51A5.56,5.56,0,0,1,143.23,306.44Z"/><path class="cls-2" d="M154,307.49a.58.58,0,0,1-.09.33.67.67,0,0,1-.34.22,3.82,3.82,0,0,1-.63.14,8,8,0,0,1-2,0,4.42,4.42,0,0,1-.65-.14.6.6,0,0,1-.33-.22.52.52,0,0,1-.1-.33V278.54a.52.52,0,0,1,.11-.32.64.64,0,0,1,.36-.22,3.47,3.47,0,0,1,.64-.14,6.36,6.36,0,0,1,.94-.06,6.71,6.71,0,0,1,1,.06,3,3,0,0,1,.63.14.61.61,0,0,1,.34.22.57.57,0,0,1,.09.32Z"/><path class="cls-2" d="M182.55,299.45a9.06,9.06,0,0,1-.37,2.62,8,8,0,0,1-1,2.16,7.54,7.54,0,0,1-1.61,1.68,9.74,9.74,0,0,1-2.12,1.21,12,12,0,0,1-2.53.73,16.8,16.8,0,0,1-3.09.25h-8.06a1.75,1.75,0,0,1-1-.36,1.5,1.5,0,0,1-.48-1.27v-26.9a1.49,1.49,0,0,1,.48-1.27,1.75,1.75,0,0,1,1-.36h7a16.63,16.63,0,0,1,4.53.51,8.11,8.11,0,0,1,2.95,1.49,6.26,6.26,0,0,1,1.77,2.4,8.22,8.22,0,0,1,.6,3.22,8.05,8.05,0,0,1-.26,2.05,7,7,0,0,1-.78,1.81,6.4,6.4,0,0,1-1.28,1.48,7,7,0,0,1-1.78,1.07,7.49,7.49,0,0,1,2.36.85,7.27,7.27,0,0,1,1.92,1.57,7.4,7.4,0,0,1,1.3,2.24A8,8,0,0,1,182.55,299.45ZM176.37,286a5.88,5.88,0,0,0-.31-2,3.68,3.68,0,0,0-1-1.51,4.53,4.53,0,0,0-1.74-.94,9.93,9.93,0,0,0-2.83-.33h-4.24V291H171a6.84,6.84,0,0,0,2.57-.41,4.56,4.56,0,0,0,1.61-1.1,4.16,4.16,0,0,0,.94-1.6A6.14,6.14,0,0,0,176.37,286Zm1.86,13.72a6,6,0,0,0-.44-2.37,4.43,4.43,0,0,0-1.29-1.73,5.73,5.73,0,0,0-2.11-1.06,12,12,0,0,0-3.2-.36h-4.91v10.63h5.95a8.12,8.12,0,0,0,2.45-.33,5.54,5.54,0,0,0,1.85-1,4.36,4.36,0,0,0,1.25-1.59A5.18,5.18,0,0,0,178.23,299.68Z"/><path class="cls-2" d="M214.62,292.67a22.74,22.74,0,0,1-.89,6.59,13.63,13.63,0,0,1-2.63,5,11.4,11.4,0,0,1-4.4,3.17,15.89,15.89,0,0,1-6.18,1.11,16.35,16.35,0,0,1-6-1,10.59,10.59,0,0,1-4.19-2.95,12.42,12.42,0,0,1-2.47-4.8,24.33,24.33,0,0,1-.81-6.6,22.22,22.22,0,0,1,.88-6.48,13.37,13.37,0,0,1,2.65-4.95A11.63,11.63,0,0,1,195,278.6a18,18,0,0,1,12.11-.1,10.74,10.74,0,0,1,4.21,2.92,12.35,12.35,0,0,1,2.5,4.76A23.24,23.24,0,0,1,214.62,292.67Zm-4.34.28a23.1,23.1,0,0,0-.47-4.77,10.66,10.66,0,0,0-1.55-3.82,7.4,7.4,0,0,0-2.89-2.53,10,10,0,0,0-4.48-.91,9.29,9.29,0,0,0-4.47,1,8.36,8.36,0,0,0-2.95,2.61,10.73,10.73,0,0,0-1.61,3.81,20.68,20.68,0,0,0-.49,4.58,25,25,0,0,0,.45,4.9,10.82,10.82,0,0,0,1.52,3.85,7.3,7.3,0,0,0,2.87,2.52,10.08,10.08,0,0,0,4.52.9,9.53,9.53,0,0,0,4.52-1,7.94,7.94,0,0,0,2.95-2.65,11,11,0,0,0,1.6-3.85A21.65,21.65,0,0,0,210.28,293Z"/><path class="cls-2" d="M255.34,297a13.61,13.61,0,0,1-.82,4.9,9.68,9.68,0,0,1-6.07,5.91,15.05,15.05,0,0,1-5,.77,14.27,14.27,0,0,1-4.65-.72,9.84,9.84,0,0,1-3.6-2.13,9.25,9.25,0,0,1-2.32-3.53,13.72,13.72,0,0,1-.81-4.9V278.54a.51.51,0,0,1,.1-.32.55.55,0,0,1,.33-.22,3.4,3.4,0,0,1,.62-.14,6.77,6.77,0,0,1,1-.06,6.85,6.85,0,0,1,1,.06,3,3,0,0,1,.63.14.56.56,0,0,1,.32.22.51.51,0,0,1,.1.32v18.23a11.5,11.5,0,0,0,.52,3.66,6.88,6.88,0,0,0,1.52,2.6,6.32,6.32,0,0,0,2.38,1.56,8.88,8.88,0,0,0,3.14.52,9.22,9.22,0,0,0,3.18-.51,6,6,0,0,0,2.36-1.54,6.71,6.71,0,0,0,1.48-2.54,11.11,11.11,0,0,0,.51-3.54V278.54a.58.58,0,0,1,.1-.32.55.55,0,0,1,.33-.22,3.34,3.34,0,0,1,.63-.14,6.9,6.9,0,0,1,1-.06,6.51,6.51,0,0,1,1,.06,3,3,0,0,1,.62.14.62.62,0,0,1,.33.22.52.52,0,0,1,.11.32Z"/><path class="cls-2" d="M284.05,307.49a.67.67,0,0,1-.07.33.56.56,0,0,1-.31.23,2.75,2.75,0,0,1-.67.14,11.31,11.31,0,0,1-1.14.05,9.08,9.08,0,0,1-1-.05,2.24,2.24,0,0,1-.63-.15.91.91,0,0,1-.37-.29,2.06,2.06,0,0,1-.23-.47l-2.83-7.11c-.34-.8-.68-1.55-1-2.22a7,7,0,0,0-1.28-1.75,5.16,5.16,0,0,0-1.74-1.14,6.39,6.39,0,0,0-2.41-.41h-2.74v12.84a.52.52,0,0,1-.1.33.77.77,0,0,1-.34.22,3.91,3.91,0,0,1-.62.14,8.2,8.2,0,0,1-2,0,4.37,4.37,0,0,1-.63-.14.6.6,0,0,1-.33-.22.52.52,0,0,1-.1-.33V279.57a1.46,1.46,0,0,1,.49-1.27,1.73,1.73,0,0,1,1-.36h6.55q1.17,0,1.95.06l1.39.12a12.36,12.36,0,0,1,3.16,1,7.47,7.47,0,0,1,2.3,1.66,6.58,6.58,0,0,1,1.4,2.29,9.14,9.14,0,0,1,.05,5.57,6.44,6.44,0,0,1-1.21,2.12,7.7,7.7,0,0,1-1.88,1.6,12.12,12.12,0,0,1-2.46,1.14,5.63,5.63,0,0,1,1.38.83,6.63,6.63,0,0,1,1.16,1.2,9.87,9.87,0,0,1,1,1.61c.32.6.64,1.29,1,2l2.76,6.64A10.71,10.71,0,0,1,284,307,1.84,1.84,0,0,1,284.05,307.49Zm-6.18-21.18a5.31,5.31,0,0,0-.81-3,4.56,4.56,0,0,0-2.72-1.76,7,7,0,0,0-1.34-.23c-.5-.05-1.16-.07-2-.07h-3.46v10.16h4a9.29,9.29,0,0,0,2.8-.38,5.65,5.65,0,0,0,2-1.08,4.09,4.09,0,0,0,1.15-1.62A5.34,5.34,0,0,0,277.87,286.31Z"/><path class="cls-2" d="M310.32,299.45a9.07,9.07,0,0,1-.36,2.62,8,8,0,0,1-1,2.16,7.54,7.54,0,0,1-1.61,1.68,9.74,9.74,0,0,1-2.12,1.21,12,12,0,0,1-2.53.73,16.8,16.8,0,0,1-3.09.25h-8.06a1.75,1.75,0,0,1-1-.36,1.5,1.5,0,0,1-.48-1.27v-26.9a1.49,1.49,0,0,1,.48-1.27,1.75,1.75,0,0,1,1-.36h7a16.63,16.63,0,0,1,4.53.51,8.11,8.11,0,0,1,2.95,1.49,6.26,6.26,0,0,1,1.77,2.4,8.22,8.22,0,0,1,.6,3.22,8.05,8.05,0,0,1-.26,2.05,7,7,0,0,1-.78,1.81,6.4,6.4,0,0,1-1.28,1.48,7,7,0,0,1-1.78,1.07,7.49,7.49,0,0,1,2.36.85,7.27,7.27,0,0,1,1.92,1.57,7.4,7.4,0,0,1,1.3,2.24A8,8,0,0,1,310.32,299.45ZM304.15,286a5.88,5.88,0,0,0-.31-2,3.6,3.6,0,0,0-1-1.51,4.41,4.41,0,0,0-1.73-.94,9.93,9.93,0,0,0-2.83-.33h-4.24V291h4.67a6.84,6.84,0,0,0,2.57-.41,4.65,4.65,0,0,0,1.61-1.1,4.16,4.16,0,0,0,.94-1.6A6.14,6.14,0,0,0,304.15,286ZM306,299.68a6,6,0,0,0-.44-2.37,4.43,4.43,0,0,0-1.29-1.73,5.81,5.81,0,0,0-2.11-1.06,12,12,0,0,0-3.2-.36h-4.91v10.63H300a8.12,8.12,0,0,0,2.45-.33,5.54,5.54,0,0,0,1.85-1,4.36,4.36,0,0,0,1.25-1.59A5.18,5.18,0,0,0,306,299.68Z"/><path class="cls-2" d="M339.18,306.68a3.08,3.08,0,0,1,.2.82.56.56,0,0,1-.18.48,1.16,1.16,0,0,1-.63.21c-.3,0-.69.05-1.18.05s-.89,0-1.18,0a2.79,2.79,0,0,1-.67-.11.7.7,0,0,1-.33-.23,1.53,1.53,0,0,1-.21-.34l-2.64-7.35H319.53L317,307.42a1.23,1.23,0,0,1-.19.36.89.89,0,0,1-.35.26,2.07,2.07,0,0,1-.64.15,10.31,10.31,0,0,1-1.08.05,8.79,8.79,0,0,1-1.14-.06A1.17,1.17,0,0,1,313,308a.58.58,0,0,1-.16-.48,2.5,2.5,0,0,1,.2-.83l10.35-28a1.09,1.09,0,0,1,.25-.42,1,1,0,0,1,.45-.26,4.09,4.09,0,0,1,.76-.13c.31,0,.71,0,1.18,0s.93,0,1.27,0a4.57,4.57,0,0,1,.81.13,1.06,1.06,0,0,1,.48.27,1.41,1.41,0,0,1,.26.43ZM325.89,282h0l-5.32,15h10.73Z"/><path class="cls-2" d="M367.65,306.44a1.93,1.93,0,0,1-.16.8,1.58,1.58,0,0,1-1,.83,2.08,2.08,0,0,1-.64.1h-1.36a4.15,4.15,0,0,1-1.12-.13,2.6,2.6,0,0,1-.92-.47,4.85,4.85,0,0,1-.86-.92,10.71,10.71,0,0,1-.91-1.49L351.26,288c-.49-.89-1-1.82-1.48-2.79s-1-1.91-1.4-2.83h-.05c0,1.12.06,2.26.07,3.43s0,2.32,0,3.47v18.2a.63.63,0,0,1-.1.32.62.62,0,0,1-.34.23,4.37,4.37,0,0,1-.63.14,8.28,8.28,0,0,1-2,0,3.91,3.91,0,0,1-.62-.14.57.57,0,0,1-.32-.23.55.55,0,0,1-.1-.32V279.66a1.55,1.55,0,0,1,.54-1.33,2,2,0,0,1,1.18-.39h2a5,5,0,0,1,1.19.12,2.31,2.31,0,0,1,.86.38,3.3,3.3,0,0,1,.74.75,8.46,8.46,0,0,1,.75,1.2l7.24,13.23,1.29,2.37c.41.77.81,1.53,1.19,2.27s.77,1.48,1.14,2.21.75,1.44,1.12,2.17h0c0-1.22-.06-2.5-.06-3.83s0-2.61,0-3.83V278.61a.53.53,0,0,1,.11-.3.81.81,0,0,1,.33-.24,2.61,2.61,0,0,1,.63-.16,9.46,9.46,0,0,1,1,0,9,9,0,0,1,1,0,2.38,2.38,0,0,1,.63.16.88.88,0,0,1,.33.24.6.6,0,0,1,.1.3Z"/><path class="cls-2" d="M401.7,292.67a22.74,22.74,0,0,1-.89,6.59,13.63,13.63,0,0,1-2.63,5,11.4,11.4,0,0,1-4.4,3.17,15.89,15.89,0,0,1-6.18,1.11,16.35,16.35,0,0,1-6-1,10.59,10.59,0,0,1-4.19-2.95,12.42,12.42,0,0,1-2.47-4.8,24.33,24.33,0,0,1-.81-6.6,22.22,22.22,0,0,1,.88-6.48,13.37,13.37,0,0,1,2.65-4.95,11.63,11.63,0,0,1,4.41-3.15,18,18,0,0,1,12.11-.1,10.74,10.74,0,0,1,4.21,2.92,12.35,12.35,0,0,1,2.5,4.76A23.24,23.24,0,0,1,401.7,292.67Zm-4.34.28a23.1,23.1,0,0,0-.47-4.77,10.66,10.66,0,0,0-1.55-3.82,7.4,7.4,0,0,0-2.89-2.53,10,10,0,0,0-4.48-.91,9.29,9.29,0,0,0-4.47,1,8.36,8.36,0,0,0-2.95,2.61,10.73,10.73,0,0,0-1.61,3.81,20.68,20.68,0,0,0-.49,4.58,25,25,0,0,0,.45,4.9,10.82,10.82,0,0,0,1.52,3.85,7.3,7.3,0,0,0,2.87,2.52,10.08,10.08,0,0,0,4.52.9,9.53,9.53,0,0,0,4.52-1,7.94,7.94,0,0,0,2.95-2.65,11,11,0,0,0,1.6-3.85A21.65,21.65,0,0,0,397.36,293Z"/><rect class="cls-2" x="190.62" y="179.02" width="45.84" height="45.84" rx="22.92"/><rect class="cls-2" x="266.64" y="179.02" width="45.84" height="45.84" rx="22.92"/><rect class="cls-2" x="225.7" y="141.3" width="51.72" height="51.72" rx="25.86"/><rect class="cls-3" x="247.9" y="169.54" width="7.16" height="78.84" rx="3.58"/><rect class="cls-3" x="263.47" y="191.97" width="7.16" height="49" rx="3.58" transform="translate(231.29 -125.43) rotate(45)"/><rect class="cls-3" x="232.04" y="191.97" width="7.16" height="49" rx="3.58" transform="translate(-84.06 230.01) rotate(-45)"/></g></g></svg>