<?xml version="1.0" encoding="iso-8859-1"?>
<!-- Generator: Adobe Illustrator 19.0.0, SVG Export Plug-In . SVG Version: 6.00 Build 0)  -->
<svg version="1.1" id="Layer_1" xmlns="http://www.w3.org/2000/svg" xmlns:xlink="http://www.w3.org/1999/xlink" x="0px" y="0px"
	 viewBox="0 0 511.999 511.999" style="enable-background:new 0 0 511.999 511.999;" xml:space="preserve">
<rect x="108.22" y="314.072" style="fill:#E7ECED11;" width="295.568" height="190.008"/>
<polygon style="fill:#AFB6BB11;" points="76.548,250.739 435.451,250.739 435.451,314.075 403.783,314.075 108.216,314.075 
	76.548,314.075 "/>
<g>
	<path style="fill:#23A24D11;" d="M256,71.287c52.78-142.506,216.398,0,216.398,0S308.78,213.793,256,71.287z"/>
	<path style="fill:#23A24D11;" d="M39.602,71.287c0,0,163.618-142.506,216.398,0C203.22,213.793,39.602,71.287,39.602,71.287z"/>
</g>
<g>
	<path style="fill:#00884511;" d="M265.858,50.175c-3.583,6.245-6.916,13.171-9.857,21.112c52.78,142.506,216.398,0,216.398,0
		s-10.929-9.492-27.981-21.112C399.024,81.11,309.982,127.101,265.858,50.175z"/>
	<path style="fill:#00884511;" d="M67.583,50.175c-17.052,11.62-27.981,21.112-27.981,21.112s163.618,142.506,216.398,0
		c-2.941-7.941-6.276-14.867-9.857-21.112C202.019,127.101,112.977,81.11,67.583,50.175z"/>
</g>
<path style="fill:#CED2D411;" d="M163.807,314.075h-55.59v190.008h223.925C251.838,468.352,189.806,399.145,163.807,314.075z"/>
<path style="fill: #00000011" d="M68.631,321.992h31.668v190.008H411.7V321.992h31.668v-79.17H68.631C68.631,242.822,68.631,321.992,68.631,321.992z
	 M395.866,496.166H116.133V374.772h171.535v-15.834H116.133v-36.946h279.734V496.166z M84.465,258.656h343.069v47.502H84.465
	C84.465,306.158,84.465,258.656,84.465,258.656z"/>
<rect style="fill: #00000011" x="308.784" y="358.935" width="26.39" height="15.834"/>
<polygon style="fill:#FFFFFF11;" points="137.245,461.859 153.079,461.859 153.079,411.718 187.386,411.718 187.386,395.884 
	137.245,395.884 "/>
<rect style="fill: #00000011" x="102.942" y="274.487" width="242.788" height="15.834"/>
<rect style="fill: #00000011" x="361.564" y="274.487" width="36.946" height="15.834"/>
<path style="fill: #00000011" d="M477.597,65.317c-3.792-3.304-93.69-80.684-164.908-62.525c-24.258,6.189-43.267,22.566-56.689,48.758
	c-11.478-22.371-27.072-37.623-46.521-45.439C181.31-5.21,146.08-0.787,104.765,19.262l6.913,14.244
	c37.126-18.014,68.044-22.289,91.897-12.704c17.02,6.841,30.623,21.153,40.556,42.568h-21.797l-29.35-29.35l-11.197,11.197
	l18.153,18.152h-30.388L140.205,34.02l-11.197,11.197l18.153,18.152h-33.666v15.834h33.666l-18.153,18.152l11.197,11.197
	l29.349-29.35h30.388l-18.153,18.152l11.197,11.197l29.349-29.35h21.817c-11.452,24.689-27.81,39.885-48.734,45.23
	c-52.427,13.394-121.01-35.669-143.289-53.154c8.877-6.986,25.113-18.995,44.78-30.035l-7.75-13.807
	c-31.315,17.579-53.812,37.06-54.755,37.881l-6.854,5.969l6.854,5.969c3.395,2.958,75.803,65.285,142.024,65.283
	c7.752,0,15.42-0.855,22.883-2.757c19.825-5.057,36.143-16.92,48.773-35.382v119.948h15.834V104.382
	c10.01,14.618,22.347,25.123,36.893,31.371c10.57,4.539,22.181,6.805,34.776,6.805c18.251,0,38.568-4.762,60.761-14.271
	l-6.234-14.554c-33.365,14.294-61.309,16.807-83.053,7.468c-16.38-7.035-29.524-21.152-39.193-42h21.8l29.349,29.35l11.197-11.197
	l-18.153-18.152h30.387l29.349,29.35l11.197-11.197l-18.153-18.152h33.666V63.371h-33.666l18.153-18.152l-11.197-11.197
	L342.447,63.37h-30.387l18.153-18.152l-11.197-11.197L289.667,63.37H267.85c11.452-24.689,27.81-39.885,48.734-45.23
	c52.433-13.388,121.009,35.671,143.288,53.155c-10.289,8.095-30.464,22.938-54.416,35.211l7.22,14.092
	c36.404-18.653,63.774-42.341,64.921-43.342l6.854-5.969L477.597,65.317z"/>
<g>
</g>
<g>
</g>
<g>
</g>
<g>
</g>
<g>
</g>
<g>
</g>
<g>
</g>
<g>
</g>
<g>
</g>
<g>
</g>
<g>
</g>
<g>
</g>
<g>
</g>
<g>
</g>
<g>
</g>
</svg>
