<?xml version="1.0" encoding="iso-8859-1"?>
<!-- Generator: Adobe Illustrator 19.0.0, SVG Export Plug-In . SVG Version: 6.00 Build 0)  -->
<svg version="1.1" id="Layer_1" xmlns="http://www.w3.org/2000/svg" xmlns:xlink="http://www.w3.org/1999/xlink" x="0px" y="0px"
	 viewBox="0 0 512 512" style="enable-background:new 0 0 512 512;" xml:space="preserve">
<g>
	<g>
		<path d="M475.361,69.845c-3.756-3.27-92.755-79.877-163.249-61.894c-24.011,6.125-42.826,22.332-56.114,48.25
			c-11.025-21.477-25.89-36.333-44.347-44.261c-25.624-11.006-57.445-8.522-94.577,7.386l6.182,14.432
			c33.025-14.147,60.683-16.633,82.199-7.392c16.205,6.96,29.211,20.926,38.778,41.547H222.68l-29.048-29.045L182.53,49.97
			l17.946,17.946h-30.041l-29.048-29.048l-11.103,11.103l17.946,17.946h-33.292v15.701h33.292l-17.946,17.945l11.103,11.102
			l29.048-29.047h30.041l-17.946,17.946l11.103,11.102l29.048-29.047h21.569c-11.335,24.423-27.519,39.456-48.221,44.745
			C144.14,141.616,76.286,93.075,54.218,75.758c10.177-8.005,30.108-22.667,53.77-34.801l-7.164-13.972
			c-35.997,18.46-63.05,41.874-64.184,42.862l-6.796,5.92l6.796,5.92c3.361,2.927,75.037,64.625,140.593,64.623
			c7.675,0,15.266-0.846,22.654-2.73c19.615-5.003,35.761-16.737,48.261-34.992v24.646h15.701v-24.668
			c10.105,14.744,22.601,25.259,37.369,31.392c10.247,4.255,21.456,6.379,33.585,6.379c19.539-0.001,41.457-5.517,65.528-16.527
			l-6.529-14.278c-34.88,15.951-64.003,19.291-86.561,9.925c-16.531-6.863-29.77-20.929-39.473-41.842h21.552l29.047,29.048
			l11.103-11.102l-17.946-17.946h30.041l29.046,29.048l11.103-11.102l-17.946-17.946h33.293V67.916h-33.293l17.946-17.946
			l-11.103-11.102l-29.046,29.048h-30.041L329.47,49.97l-11.103-11.102l-29.047,29.048h-21.57
			c11.335-24.423,27.519-39.456,48.221-44.745c51.873-13.251,119.743,35.287,141.812,52.604
			c-8.789,6.916-24.853,18.797-44.309,29.717l7.685,13.691c31-17.401,53.269-36.685,54.2-37.498l6.796-5.92L475.361,69.845z"/>
	</g>
</g>
<g>
	<g>
		<rect x="78.367" y="454.53" width="20.899" height="15.701"/>
	</g>
</g>
<g>
	<g>
		<rect x="99.26" y="433.627" width="20.898" height="15.701"/>
	</g>
</g>
<g>
	<g>
		<rect x="151.513" y="449.306" width="20.898" height="15.701"/>
	</g>
</g>
<g>
	<g>
		<rect x="224.658" y="376.162" width="20.898" height="15.701"/>
	</g>
</g>
<g>
	<g>
		<rect x="245.55" y="397.054" width="20.898" height="15.701"/>
	</g>
</g>
<g>
	<g>
		<rect x="224.658" y="449.306" width="20.898" height="15.701"/>
	</g>
</g>
<g>
	<g>
		<rect x="276.899" y="459.753" width="20.898" height="15.701"/>
	</g>
</g>
<g>
	<g>
		<rect x="412.732" y="449.306" width="20.898" height="15.701"/>
	</g>
</g>
<g>
	<g>
		<rect x="391.84" y="428.403" width="20.898" height="15.701"/>
	</g>
</g>
<g>
	<g>
		<rect x="350.044" y="449.306" width="20.898" height="15.701"/>
	</g>
</g>
<g>
	<g>
		<path d="M488.47,491.098c0.022-0.876,0.034-1.739,0.034-2.596c0-59.063-48.052-107.115-107.116-107.115
			c-12.785,0-23.494,1.167-32.491,3.555c-17.079-32.289-48.703-52.906-85.046-55.512V148.906h-15.701v180.522
			c-36.342,2.605-67.966,23.223-85.045,55.512c-8.998-2.387-19.707-3.555-32.492-3.555c-59.063,0-107.115,48.052-107.115,107.115
			c0,0.858,0.012,1.722,0.034,2.598H0v15.701h512v-15.701H488.47z M472.76,491.1H39.24c-0.026-0.881-0.043-1.748-0.043-2.598
			c0-50.406,41.008-91.414,91.414-91.414c13.568,0,24.619,1.481,32.885,4.394c14.31,10.345,35.049,28.302,38.035,37.258
			l14.895-4.965c-4.755-14.267-27.851-33.084-39.312-41.746c15.712-29.668,44.764-47.186,78.884-47.186
			c34.081,0,63.107,17.476,78.832,47.081c-9.949,7.347-30.305,23.767-38.832,40.823l14.043,7.021
			c8.537-17.074,33.686-35.012,38.369-38.253c8.275-2.935,19.358-4.428,32.978-4.428c50.406,0,91.415,41.008,91.415,91.414
			C472.802,489.352,472.786,490.22,472.76,491.1z"/>
	</g>
</g>
<g>
</g>
<g>
</g>
<g>
</g>
<g>
</g>
<g>
</g>
<g>
</g>
<g>
</g>
<g>
</g>
<g>
</g>
<g>
</g>
<g>
</g>
<g>
</g>
<g>
</g>
<g>
</g>
<g>
</g>
</svg>
